{
    "asset" : {
        "extensions" : {
            "ASOBO_normal_map_convention" : {
                "tangent_space_convention" : "DirectX"
            }
        },
        "generator" : "Extended Khronos glTF Blender I/O v1.0.0",
        "version" : "2.0"
    },
    "extensionsUsed" : [
        "ASOBO_normal_map_convention"
    ],
    "scene" : 0,
    "scenes" : [
        {
            "name" : "Scene",
            "nodes" : [
                0,
                1,
                2,
                3,
                4,
                11
            ]
        }
    ],
    "nodes" : [
        {
            "mesh" : 0,
            "name" : "Text.001",
            "rotation" : [
                0.7071067690849304,
                0,
                0,
                0.7071067690849304
            ],
            "scale" : [
                0.14047212898731232,
                0.14047212898731232,
                0.14047212898731232
            ],
            "translation" : [
                1.4160466194152832,
                -0.19350102543830872,
                0.48438695073127747
            ]
        },
        {
            "name" : "Text.002"
        },
        {
            "name" : "Text.004",
            "rotation" : [
                0.7071067690849304,
                0,
                0,
                0.7071067690849304
            ],
            "scale" : [
                0.2341202050447464,
                0.2341202050447464,
                0.2341202050447464
            ],
            "translation" : [
                1.5284024477005005,
                -0.20462128520011902,
                0.4870619475841522
            ]
        },
        {
            "mesh" : 1,
            "name" : "Text.005",
            "rotation" : [
                0.7067064642906189,
                0.02378992736339569,
                0.02378992550075054,
                0.7067064642906189
            ],
            "scale" : [
                0.14047212898731232,
                0.14047212898731232,
                0.14047212898731232
            ],
            "translation" : [
                1.4160466194152832,
                -0.19350102543830872,
                0.48438695073127747
            ]
        },
        {
            "mesh" : 2,
            "name" : "Text.003",
            "rotation" : [
                0.7071043848991394,
                -0.0018385729053989053,
                -0.0018385727889835835,
                0.7071043848991394
            ],
            "scale" : [
                0.14047212898731232,
                0.14047212898731232,
                0.14047212898731232
            ],
            "translation" : [
                1.484131932258606,
                -0.1934845894575119,
                0.48438695073127747
            ]
        },
        {
            "mesh" : 3,
            "name" : "heart_0",
            "scale" : [
                0.6093561053276062,
                0.6093561053276062,
                1.3322162628173828
            ],
            "translation" : [
                0.04631555452942848,
                -0.053554635494947433,
                0
            ]
        },
        {
            "mesh" : 4,
            "name" : "heart_0.001",
            "scale" : [
                0.6093561053276062,
                0.6093561053276062,
                1.3322162628173828
            ],
            "translation" : [
                1.9525766372680664,
                -0.39181169867515564,
                0
            ]
        },
        {
            "mesh" : 5,
            "name" : "heart_0.002",
            "scale" : [
                0.6093561053276062,
                0.6093561053276062,
                1.3322162628173828
            ],
            "translation" : [
                4.074371337890625,
                -0.39181169867515564,
                0
            ]
        },
        {
            "children" : [
                5,
                6,
                7
            ],
            "name" : "heart",
            "rotation" : [
                0.7071099877357483,
                0,
                0,
                0.7071099877357483
            ]
        },
        {
            "children" : [
                8
            ],
            "name" : "Root"
        },
        {
            "children" : [
                9
            ],
            "name" : "RootNode (model correction matrix)"
        },
        {
            "children" : [
                10
            ],
            "name" : "RootNode (gltf orientation matrix)",
            "rotation" : [
                -0.7071067690849304,
                0,
                0,
                0.7071067690849304
            ],
            "scale" : [
                0.03638517111539841,
                0.03638516739010811,
                0.03638516739010811
            ],
            "translation" : [
                1.3364778757095337,
                -0.18050137162208557,
                0.4840351641178131
            ]
        }
    ],
    "animations" : [
        {
            "channels" : [
                {
                    "sampler" : 0,
                    "target" : {
                        "node" : 8,
                        "path" : "translation"
                    }
                },
                {
                    "sampler" : 1,
                    "target" : {
                        "node" : 8,
                        "path" : "rotation"
                    }
                },
                {
                    "sampler" : 2,
                    "target" : {
                        "node" : 8,
                        "path" : "scale"
                    }
                }
            ],
            "name" : "heart",
            "samplers" : [
                {
                    "input" : 19,
                    "interpolation" : "LINEAR",
                    "output" : 20
                },
                {
                    "input" : 19,
                    "interpolation" : "LINEAR",
                    "output" : 21
                },
                {
                    "input" : 19,
                    "interpolation" : "LINEAR",
                    "output" : 22
                }
            ]
        }
    ],
    "materials" : [
        {
            "doubleSided" : true,
            "emissiveFactor" : [
                0,
                0,
                0
            ],
            "name" : "Material",
            "pbrMetallicRoughness" : {
                "baseColorFactor" : [
                    0.04395873099565506,
                    0.21299591660499573,
                    0.8000000715255737,
                    1
                ],
                "metallicFactor" : 0,
                "roughnessFactor" : 0.4000000059604645
            }
        },
        {
            "doubleSided" : true,
            "emissiveFactor" : [
                0,
                0,
                0
            ],
            "name" : "pink",
            "pbrMetallicRoughness" : {
                "baseColorFactor" : [
                    0.8000000715255737,
                    0.1718127578496933,
                    0.525249719619751,
                    1
                ],
                "metallicFactor" : 0,
                "roughnessFactor" : 0.5
            }
        },
        {
            "doubleSided" : true,
            "emissiveFactor" : [
                0,
                0,
                0
            ],
            "name" : "Red",
            "pbrMetallicRoughness" : {
                "baseColorFactor" : [
                    0.8000000715255737,
                    0.008013883605599403,
                    0.013566155917942524,
                    1
                ],
                "metallicFactor" : 0,
                "roughnessFactor" : 0.5
            }
        }
    ],
    "meshes" : [
        {
            "name" : "Text.002",
            "primitives" : [
                {
                    "attributes" : {
                        "POSITION" : 0,
                        "NORMAL" : 1,
                        "TEXCOORD_0" : 2
                    },
                    "indices" : 3,
                    "material" : 0
                }
            ]
        },
        {
            "name" : "Text.004",
            "primitives" : [
                {
                    "attributes" : {
                        "POSITION" : 4,
                        "NORMAL" : 5,
                        "TEXCOORD_0" : 6
                    },
                    "indices" : 7,
                    "material" : 0
                }
            ]
        },
        {
            "name" : "Text.006",
            "primitives" : [
                {
                    "attributes" : {
                        "POSITION" : 8,
                        "NORMAL" : 9,
                        "TEXCOORD_0" : 10
                    },
                    "indices" : 11,
                    "material" : 0
                }
            ]
        },
        {
            "name" : "heart_0",
            "primitives" : [
                {
                    "attributes" : {
                        "POSITION" : 12,
                        "NORMAL" : 13
                    },
                    "indices" : 14,
                    "material" : 1
                }
            ]
        },
        {
            "name" : "heart_0.001",
            "primitives" : [
                {
                    "attributes" : {
                        "POSITION" : 15,
                        "NORMAL" : 16
                    },
                    "indices" : 14,
                    "material" : 2
                }
            ]
        },
        {
            "name" : "heart_0.002",
            "primitives" : [
                {
                    "attributes" : {
                        "POSITION" : 17,
                        "NORMAL" : 18
                    },
                    "indices" : 14,
                    "material" : 2
                }
            ]
        }
    ],
    "accessors" : [
        {
            "bufferView" : 0,
            "componentType" : 5126,
            "count" : 348,
            "max" : [
                -0.3514133393764496,
                0.04999999701976776,
                0.2635599374771118
            ],
            "min" : [
                -0.7242169976234436,
                -0.04999999701976776,
                -0.2727273106575012
            ],
            "type" : "VEC3"
        },
        {
            "bufferView" : 1,
            "componentType" : 5126,
            "count" : 348,
            "type" : "VEC3"
        },
        {
            "bufferView" : 2,
            "componentType" : 5126,
            "count" : 348,
            "type" : "VEC2"
        },
        {
            "bufferView" : 3,
            "componentType" : 5123,
            "count" : 912,
            "type" : "SCALAR"
        },
        {
            "bufferView" : 4,
            "componentType" : 5126,
            "count" : 445,
            "max" : [
                0.18716596066951752,
                0.050000064074993134,
                0.27272725105285645
            ],
            "min" : [
                -0.2918258607387543,
                -0.04999999701976776,
                -0.2727273106575012
            ],
            "type" : "VEC3"
        },
        {
            "bufferView" : 5,
            "componentType" : 5126,
            "count" : 445,
            "type" : "VEC3"
        },
        {
            "bufferView" : 6,
            "componentType" : 5126,
            "count" : 445,
            "type" : "VEC2"
        },
        {
            "bufferView" : 7,
            "componentType" : 5123,
            "count" : 1152,
            "type" : "SCALAR"
        },
        {
            "bufferView" : 8,
            "componentType" : 5126,
            "count" : 462,
            "max" : [
                0.23952826857566833,
                0.05000000819563866,
                0.27284425497055054
            ],
            "min" : [
                -0.23946380615234375,
                -0.05000005662441254,
                -0.2726103365421295
            ],
            "type" : "VEC3"
        },
        {
            "bufferView" : 9,
            "componentType" : 5126,
            "count" : 462,
            "type" : "VEC3"
        },
        {
            "bufferView" : 10,
            "componentType" : 5126,
            "count" : 462,
            "type" : "VEC2"
        },
        {
            "bufferView" : 11,
            "componentType" : 5123,
            "count" : 1152,
            "type" : "SCALAR"
        },
        {
            "bufferView" : 12,
            "componentType" : 5126,
            "count" : 2018,
            "max" : [
                0.6516799926757812,
                0.571179986000061,
                0.17621000111103058
            ],
            "min" : [
                -0.6516799926757812,
                -0.5579900145530701,
                -0.17621000111103058
            ],
            "type" : "VEC3"
        },
        {
            "bufferView" : 13,
            "componentType" : 5126,
            "count" : 2018,
            "type" : "VEC3"
        },
        {
            "bufferView" : 14,
            "componentType" : 5123,
            "count" : 12096,
            "type" : "SCALAR"
        },
        {
            "bufferView" : 15,
            "componentType" : 5126,
            "count" : 2018,
            "max" : [
                0.6516799926757812,
                0.571179986000061,
                0.17621000111103058
            ],
            "min" : [
                -0.6516799926757812,
                -0.5579900145530701,
                -0.17621000111103058
            ],
            "type" : "VEC3"
        },
        {
            "bufferView" : 16,
            "componentType" : 5126,
            "count" : 2018,
            "type" : "VEC3"
        },
        {
            "bufferView" : 17,
            "componentType" : 5126,
            "count" : 2018,
            "max" : [
                0.6516799926757812,
                0.571179986000061,
                0.17621000111103058
            ],
            "min" : [
                -0.6516799926757812,
                -0.5579900145530701,
                -0.17621000111103058
            ],
            "type" : "VEC3"
        },
        {
            "bufferView" : 18,
            "componentType" : 5126,
            "count" : 2018,
            "type" : "VEC3"
        },
        {
            "bufferView" : 19,
            "componentType" : 5126,
            "count" : 25,
            "max" : [
                1
            ],
            "min" : [
                0
            ],
            "type" : "SCALAR"
        },
        {
            "bufferView" : 20,
            "componentType" : 5126,
            "count" : 25,
            "type" : "VEC3"
        },
        {
            "bufferView" : 21,
            "componentType" : 5126,
            "count" : 25,
            "type" : "VEC4"
        },
        {
            "bufferView" : 22,
            "componentType" : 5126,
            "count" : 25,
            "type" : "VEC3"
        }
    ],
    "bufferViews" : [
        {
            "buffer" : 0,
            "byteLength" : 4176,
            "byteOffset" : 0
        },
        {
            "buffer" : 0,
            "byteLength" : 4176,
            "byteOffset" : 4176
        },
        {
            "buffer" : 0,
            "byteLength" : 2784,
            "byteOffset" : 8352
        },
        {
            "buffer" : 0,
            "byteLength" : 1824,
            "byteOffset" : 11136
        },
        {
            "buffer" : 0,
            "byteLength" : 5340,
            "byteOffset" : 12960
        },
        {
            "buffer" : 0,
            "byteLength" : 5340,
            "byteOffset" : 18300
        },
        {
            "buffer" : 0,
            "byteLength" : 3560,
            "byteOffset" : 23640
        },
        {
            "buffer" : 0,
            "byteLength" : 2304,
            "byteOffset" : 27200
        },
        {
            "buffer" : 0,
            "byteLength" : 5544,
            "byteOffset" : 29504
        },
        {
            "buffer" : 0,
            "byteLength" : 5544,
            "byteOffset" : 35048
        },
        {
            "buffer" : 0,
            "byteLength" : 3696,
            "byteOffset" : 40592
        },
        {
            "buffer" : 0,
            "byteLength" : 2304,
            "byteOffset" : 44288
        },
        {
            "buffer" : 0,
            "byteLength" : 24216,
            "byteOffset" : 46592
        },
        {
            "buffer" : 0,
            "byteLength" : 24216,
            "byteOffset" : 70808
        },
        {
            "buffer" : 0,
            "byteLength" : 24192,
            "byteOffset" : 95024
        },
        {
            "buffer" : 0,
            "byteLength" : 24216,
            "byteOffset" : 119216
        },
        {
            "buffer" : 0,
            "byteLength" : 24216,
            "byteOffset" : 143432
        },
        {
            "buffer" : 0,
            "byteLength" : 24216,
            "byteOffset" : 167648
        },
        {
            "buffer" : 0,
            "byteLength" : 24216,
            "byteOffset" : 191864
        },
        {
            "buffer" : 0,
            "byteLength" : 100,
            "byteOffset" : 216080
        },
        {
            "buffer" : 0,
            "byteLength" : 300,
            "byteOffset" : 216180
        },
        {
            "buffer" : 0,
            "byteLength" : 400,
            "byteOffset" : 216480
        },
        {
            "buffer" : 0,
            "byteLength" : 300,
            "byteOffset" : 216880
        }
    ],
    "buffers" : [
        {
            "byteLength" : 217180,
            "uri" : "data:application/octet-stream;base64,"
        }
    ]
}
