{
    "asset" : {
        "extensions" : {
            "ASOBO_normal_map_convention" : {
                "tangent_space_convention" : "DirectX"
            }
        },
        "generator" : "Extended Khronos glTF Blender I/O v1.0.0",
        "version" : "2.0"
    },
    "extensionsUsed" : [
        "ASOBO_normal_map_convention"
    ],
    "scene" : 0,
    "scenes" : [
        {
            "name" : "Scene",
            "nodes" : [
                0,
                1,
                2,
                3,
                4,
                5
            ]
        }
    ],
    "nodes" : [
        {
            "mesh" : 0,
            "name" : "ObjObject",
            "rotation" : [
                0.5,
                -0.4999999701976776,
                0.5000000596046448,
                0.4999999403953552
            ],
            "translation" : [
                -3.492335319519043,
                -6.276456832885742,
                -4.194007396697998
            ]
        },
        {
            "mesh" : 1,
            "name" : "ObjObject.002",
            "rotation" : [
                0.5,
                -0.4999999701976776,
                0.5000000596046448,
                0.4999999403953552
            ],
            "scale" : [
                1.4264377355575562,
                1.4264377355575562,
                1.4264377355575562
            ],
            "translation" : [
                -7.848832130432129,
                -13.191216468811035,
                -5.8891119956970215
            ]
        },
        {
            "mesh" : 2,
            "name" : "Screen",
            "rotation" : [
                0.7071067690849304,
                0,
                0,
                0.7071067690849304
            ],
            "scale" : [
                1.9762784242630005,
                1.0337262153625488,
                1.4269884824752808
            ],
            "translation" : [
                -0.14762115478515625,
                2.072406530380249,
                -2.730769157409668
            ]
        },
        {
            "mesh" : 3,
            "name" : "Cube.001",
            "rotation" : [
                0,
                0,
                -1,
                7.549790126404332e-08
            ],
            "scale" : [
                -0.38567644357681274,
                -0.38567644357681274,
                -0.07312451303005219
            ],
            "translation" : [
                1.617480993270874,
                2.1773409843444824,
                -0.4071412682533264
            ]
        },
        {
            "mesh" : 4,
            "name" : "Text",
            "rotation" : [
                0.7071068286895752,
                0,
                0,
                0.7071067094802856
            ],
            "scale" : [
                0.6588361859321594,
                0.6588362455368042,
                0.6588362455368042
            ],
            "translation" : [
                1.354602575302124,
                2.029632568359375,
                -0.3333309292793274
            ]
        },
        {
            "mesh" : 5,
            "name" : "Text.001",
            "rotation" : [
                0.7071068286895752,
                0,
                0,
                0.7071067094802856
            ],
            "scale" : [
                0.6588361859321594,
                0.6588362455368042,
                0.6588362455368042
            ],
            "translation" : [
                1.354602575302124,
                2.029632568359375,
                -0.3333309292793274
            ]
        }
    ],
    "materials" : [
        {
            "doubleSided" : true,
            "emissiveFactor" : [
                0,
                0,
                0
            ],
            "name" : "palette.001",
            "pbrMetallicRoughness" : {
                "baseColorTexture" : {
                    "index" : 0,
                    "texCoord" : 0
                },
                "metallicFactor" : 0,
                "roughnessFactor" : 0.5
            }
        },
        {
            "doubleSided" : true,
            "emissiveFactor" : [
                0,
                0,
                0
            ],
            "name" : "Screen",
            "pbrMetallicRoughness" : {
                "baseColorTexture" : {
                    "index" : 1,
                    "texCoord" : 0
                },
                "metallicFactor" : 0,
                "roughnessFactor" : 0.5
            }
        },
        {
            "doubleSided" : true,
            "emissiveFactor" : [
                0,
                0,
                0
            ],
            "name" : "Material.001",
            "pbrMetallicRoughness" : {
                "baseColorFactor" : [
                    0.03267701715230942,
                    0.5639402866363525,
                    0.5543328523635864,
                    1
                ],
                "metallicFactor" : 0,
                "roughnessFactor" : 0.5
            }
        }
    ],
    "meshes" : [
        {
            "name" : "ObjObject",
            "primitives" : [
                {
                    "attributes" : {
                        "POSITION" : 0,
                        "NORMAL" : 1,
                        "TEXCOORD_0" : 2
                    },
                    "indices" : 3,
                    "material" : 0
                }
            ]
        },
        {
            "name" : "ObjObject.002",
            "primitives" : [
                {
                    "attributes" : {
                        "POSITION" : 4,
                        "NORMAL" : 5,
                        "TEXCOORD_0" : 6
                    },
                    "indices" : 7,
                    "material" : 0
                }
            ]
        },
        {
            "name" : "Plane",
            "primitives" : [
                {
                    "attributes" : {
                        "POSITION" : 8,
                        "NORMAL" : 9,
                        "TEXCOORD_0" : 10
                    },
                    "indices" : 11,
                    "material" : 1
                }
            ]
        },
        {
            "name" : "Cube.002",
            "primitives" : [
                {
                    "attributes" : {
                        "POSITION" : 12,
                        "NORMAL" : 13,
                        "TEXCOORD_0" : 14
                    },
                    "indices" : 15,
                    "material" : 2
                }
            ]
        },
        {
            "name" : "_b",
            "primitives" : [
                {
                    "attributes" : {
                        "POSITION" : 16,
                        "NORMAL" : 17,
                        "TEXCOORD_0" : 18
                    },
                    "indices" : 19,
                    "material" : 2
                }
            ]
        },
        {
            "name" : "_b.001",
            "primitives" : [
                {
                    "attributes" : {
                        "POSITION" : 20,
                        "NORMAL" : 21,
                        "TEXCOORD_0" : 22
                    },
                    "indices" : 23,
                    "material" : 2
                }
            ]
        }
    ],
    "textures" : [
        {
            "source" : 0
        },
        {
            "sampler" : 0,
            "source" : 1
        }
    ],
    "images" : [
        {
            "bufferView" : 4,
            "mimeType" : "image/png",
            "name" : "nintendo"
        },
        {
            "bufferView" : 13,
            "mimeType" : "image/png",
            "name" : "Ready Builder One -banner"
        }
    ],
    "accessors" : [
        {
            "bufferView" : 0,
            "componentType" : 5126,
            "count" : 814,
            "max" : [
                8.199999809265137,
                -3.5,
                -6.300000190734863
            ],
            "min" : [
                3.299999952316284,
                -6.300000190734863,
                -7.099999904632568
            ],
            "type" : "VEC3"
        },
        {
            "bufferView" : 1,
            "componentType" : 5126,
            "count" : 814,
            "type" : "VEC3"
        },
        {
            "bufferView" : 2,
            "componentType" : 5126,
            "count" : 814,
            "type" : "VEC2"
        },
        {
            "bufferView" : 3,
            "componentType" : 5123,
            "count" : 1494,
            "type" : "SCALAR"
        },
        {
            "bufferView" : 5,
            "componentType" : 5126,
            "count" : 351,
            "max" : [
                2.299999952316284,
                -3.700000047683716,
                -9.300000190734863
            ],
            "min" : [
                0.10000000149011612,
                -7.099999904632568,
                -12
            ],
            "type" : "VEC3"
        },
        {
            "bufferView" : 6,
            "componentType" : 5126,
            "count" : 351,
            "type" : "VEC3"
        },
        {
            "bufferView" : 7,
            "componentType" : 5126,
            "count" : 351,
            "type" : "VEC2"
        },
        {
            "bufferView" : 8,
            "componentType" : 5123,
            "count" : 885,
            "type" : "SCALAR"
        },
        {
            "bufferView" : 9,
            "componentType" : 5126,
            "count" : 4,
            "max" : [
                1,
                0,
                1
            ],
            "min" : [
                -1,
                0,
                -1
            ],
            "type" : "VEC3"
        },
        {
            "bufferView" : 10,
            "componentType" : 5126,
            "count" : 4,
            "type" : "VEC3"
        },
        {
            "bufferView" : 11,
            "componentType" : 5126,
            "count" : 4,
            "type" : "VEC2"
        },
        {
            "bufferView" : 12,
            "componentType" : 5123,
            "count" : 6,
            "type" : "SCALAR"
        },
        {
            "bufferView" : 14,
            "componentType" : 5126,
            "count" : 84,
            "max" : [
                1,
                1,
                1.0000001192092896
            ],
            "min" : [
                -1,
                -1,
                -1.0000001192092896
            ],
            "type" : "VEC3"
        },
        {
            "bufferView" : 15,
            "componentType" : 5126,
            "count" : 84,
            "type" : "VEC3"
        },
        {
            "bufferView" : 16,
            "componentType" : 5126,
            "count" : 84,
            "type" : "VEC2"
        },
        {
            "bufferView" : 17,
            "componentType" : 5123,
            "count" : 186,
            "type" : "SCALAR"
        },
        {
            "bufferView" : 18,
            "componentType" : 5126,
            "count" : 835,
            "max" : [
                0.775251567363739,
                0,
                0.10137905180454254
            ],
            "min" : [
                -0.001863585552200675,
                -0.2199999988079071,
                -0.536712646484375
            ],
            "type" : "VEC3"
        },
        {
            "bufferView" : 19,
            "componentType" : 5126,
            "count" : 835,
            "type" : "VEC3"
        },
        {
            "bufferView" : 20,
            "componentType" : 5126,
            "count" : 835,
            "type" : "VEC2"
        },
        {
            "bufferView" : 21,
            "componentType" : 5123,
            "count" : 1248,
            "type" : "SCALAR"
        },
        {
            "bufferView" : 22,
            "componentType" : 5126,
            "count" : 12,
            "max" : [
                0.35109952092170715,
                0,
                0.10137905180454254
            ],
            "min" : [
                -0.001863585552200675,
                -0.2199999988079071,
                0.05068952590227127
            ],
            "type" : "VEC3"
        },
        {
            "bufferView" : 23,
            "componentType" : 5126,
            "count" : 12,
            "type" : "VEC3"
        },
        {
            "bufferView" : 24,
            "componentType" : 5126,
            "count" : 12,
            "type" : "VEC2"
        },
        {
            "bufferView" : 25,
            "componentType" : 5123,
            "count" : 18,
            "type" : "SCALAR"
        }
    ],
    "bufferViews" : [
        {
            "buffer" : 0,
            "byteLength" : 9768,
            "byteOffset" : 0
        },
        {
            "buffer" : 0,
            "byteLength" : 9768,
            "byteOffset" : 9768
        },
        {
            "buffer" : 0,
            "byteLength" : 6512,
            "byteOffset" : 19536
        },
        {
            "buffer" : 0,
            "byteLength" : 2988,
            "byteOffset" : 26048
        },
        {
            "buffer" : 0,
            "byteLength" : 141,
            "byteOffset" : 29036
        },
        {
            "buffer" : 0,
            "byteLength" : 4212,
            "byteOffset" : 29180
        },
        {
            "buffer" : 0,
            "byteLength" : 4212,
            "byteOffset" : 33392
        },
        {
            "buffer" : 0,
            "byteLength" : 2808,
            "byteOffset" : 37604
        },
        {
            "buffer" : 0,
            "byteLength" : 1770,
            "byteOffset" : 40412
        },
        {
            "buffer" : 0,
            "byteLength" : 48,
            "byteOffset" : 42184
        },
        {
            "buffer" : 0,
            "byteLength" : 48,
            "byteOffset" : 42232
        },
        {
            "buffer" : 0,
            "byteLength" : 32,
            "byteOffset" : 42280
        },
        {
            "buffer" : 0,
            "byteLength" : 12,
            "byteOffset" : 42312
        },
        {
            "buffer" : 0,
            "byteLength" : 366217,
            "byteOffset" : 42324
        },
        {
            "buffer" : 0,
            "byteLength" : 1008,
            "byteOffset" : 408544
        },
        {
            "buffer" : 0,
            "byteLength" : 1008,
            "byteOffset" : 409552
        },
        {
            "buffer" : 0,
            "byteLength" : 672,
            "byteOffset" : 410560
        },
        {
            "buffer" : 0,
            "byteLength" : 372,
            "byteOffset" : 411232
        },
        {
            "buffer" : 0,
            "byteLength" : 10020,
            "byteOffset" : 411604
        },
        {
            "buffer" : 0,
            "byteLength" : 10020,
            "byteOffset" : 421624
        },
        {
            "buffer" : 0,
            "byteLength" : 6680,
            "byteOffset" : 431644
        },
        {
            "buffer" : 0,
            "byteLength" : 2496,
            "byteOffset" : 438324
        },
        {
            "buffer" : 0,
            "byteLength" : 144,
            "byteOffset" : 440820
        },
        {
            "buffer" : 0,
            "byteLength" : 144,
            "byteOffset" : 440964
        },
        {
            "buffer" : 0,
            "byteLength" : 96,
            "byteOffset" : 441108
        },
        {
            "buffer" : 0,
            "byteLength" : 36,
            "byteOffset" : 441204
        }
    ],
    "samplers" : [
        {
            "magFilter" : 9729,
            "minFilter" : 9986
        }
    ],
    "buffers" : [
        {
            "byteLength" : 441240,
            "uri" : "data:application/octet-stream;base64,"
        }
    ]
}
